<svg xmlns="http://www.w3.org/2000/svg" width="1600" height="850" viewBox="0 0 1600 850"><rect width="1600" height="850" fill="#F8F7F4"/><g font-family="Helvetica, Arial, sans-serif" fill="#242B29"><text x="64" y="87" font-size="46" font-weight="600">Hola</text><text x="66" y="126" font-size="17" fill="#6B726E">让每句话，更好地被理解。 /  五个品牌方向</text><text x="1530" y="86" text-anchor="end" font-size="13" letter-spacing="2">LOGO EXPLORATION — 2026</text><rect x="64" y="197" width="276" height="300" rx="22" fill="#E9F3EE"/><svg x="112" y="246" width="180" height="180" viewBox="0 0 100 100" color="#167C66"><path d="M50 18C30 18 16 30 16 47c0 11 6 20 16 25l-3 12 18-7h3c20 0 34-12 34-30S70 18 50 18Z" fill="none" stroke="currentColor" stroke-width="6" stroke-linejoin="round"/><path d="M34 48q16 22 32 0" fill="none" stroke="currentColor" stroke-width="6" stroke-linecap="round"/></svg><text x="64" y="541" font-size="13" fill="#6B726E">01 / SMILE</text><text x="64" y="580" font-size="25" font-weight="600">会心一笑</text><svg x="64" y="620" width="24" height="24" viewBox="0 0 100 100" color="#242B29"><path d="M50 18C30 18 16 30 16 47c0 11 6 20 16 25l-3 12 18-7h3c20 0 34-12 34-30S70 18 50 18Z" fill="none" stroke="currentColor" stroke-width="6" stroke-linejoin="round"/><path d="M34 48q16 22 32 0" fill="none" stroke="currentColor" stroke-width="6" stroke-linecap="round"/></svg><svg x="112" y="612" width="40" height="40" viewBox="0 0 100 100" color="#242B29"><path d="M50 18C30 18 16 30 16 47c0 11 6 20 16 25l-3 12 18-7h3c20 0 34-12 34-30S70 18 50 18Z" fill="none" stroke="currentColor" stroke-width="6" stroke-linejoin="round"/><path d="M34 48q16 22 32 0" fill="none" stroke="currentColor" stroke-width="6" stroke-linecap="round"/></svg><rect x="183" y="601" width="60" height="60" rx="14" fill="#242B29"/><svg x="193" y="611" width="40" height="40" viewBox="0 0 100 100" color="white"><path d="M50 18C30 18 16 30 16 47c0 11 6 20 16 25l-3 12 18-7h3c20 0 34-12 34-30S70 18 50 18Z" fill="none" stroke="currentColor" stroke-width="6" stroke-linejoin="round"/><path d="M34 48q16 22 32 0" fill="none" stroke="currentColor" stroke-width="6" stroke-linecap="round"/></svg><rect x="364" y="197" width="276" height="300" rx="22" fill="#F0ECF8"/><svg x="412" y="246" width="180" height="180" viewBox="0 0 100 100" color="#6852B0"><defs><mask id="nib"><rect width="100" height="100" fill="white"/><path d="m26 73 25-25" stroke="black" stroke-width="5" stroke-linecap="round"/></mask></defs><path d="M24 75 32 45 56 21 78 43 54 67Z" fill="currentColor" mask="url(#nib)"/><path d="M78 57q0 14 13 14-13 0-13 14 0-14-13-14 13 0 13-14Z" fill="currentColor"/></svg><text x="364" y="541" font-size="13" fill="#6B726E">02 / REFINE</text><text x="364" y="580" font-size="25" font-weight="600">妙笔生花</text><svg x="364" y="620" width="24" height="24" viewBox="0 0 100 100" color="#242B29"><defs><mask id="nibsmall"><rect width="100" height="100" fill="white"/><path d="m26 73 25-25" stroke="black" stroke-width="5" stroke-linecap="round"/></mask></defs><path d="M24 75 32 45 56 21 78 43 54 67Z" fill="currentColor" mask="url(#nibsmall)"/><path d="M78 57q0 14 13 14-13 0-13 14 0-14-13-14 13 0 13-14Z" fill="currentColor"/></svg><svg x="412" y="612" width="40" height="40" viewBox="0 0 100 100" color="#242B29"><defs><mask id="nibmedium"><rect width="100" height="100" fill="white"/><path d="m26 73 25-25" stroke="black" stroke-width="5" stroke-linecap="round"/></mask></defs><path d="M24 75 32 45 56 21 78 43 54 67Z" fill="currentColor" mask="url(#nibmedium)"/><path d="M78 57q0 14 13 14-13 0-13 14 0-14-13-14 13 0 13-14Z" fill="currentColor"/></svg><rect x="483" y="601" width="60" height="60" rx="14" fill="#242B29"/><svg x="493" y="611" width="40" height="40" viewBox="0 0 100 100" color="white"><defs><mask id="nibwhite"><rect width="100" height="100" fill="white"/><path d="m26 73 25-25" stroke="black" stroke-width="5" stroke-linecap="round"/></mask></defs><path d="M24 75 32 45 56 21 78 43 54 67Z" fill="currentColor" mask="url(#nibwhite)"/><path d="M78 57q0 14 13 14-13 0-13 14 0-14-13-14 13 0 13-14Z" fill="currentColor"/></svg><rect x="664" y="197" width="276" height="300" rx="22" fill="#EAF0F8"/><svg x="712" y="246" width="180" height="180" viewBox="0 0 100 100" color="#2961A0"><path d="M26 24v52m48-52v52M26 47q24 22 48 0" fill="none" stroke="currentColor" stroke-width="12" stroke-linecap="round"/></svg><text x="664" y="541" font-size="13" fill="#6B726E">03 / BRIDGE</text><text x="664" y="580" font-size="25" font-weight="600">言语之桥</text><svg x="664" y="620" width="24" height="24" viewBox="0 0 100 100" color="#242B29"><path d="M26 24v52m48-52v52M26 47q24 22 48 0" fill="none" stroke="currentColor" stroke-width="12" stroke-linecap="round"/></svg><svg x="712" y="612" width="40" height="40" viewBox="0 0 100 100" color="#242B29"><path d="M26 24v52m48-52v52M26 47q24 22 48 0" fill="none" stroke="currentColor" stroke-width="12" stroke-linecap="round"/></svg><rect x="783" y="601" width="60" height="60" rx="14" fill="#242B29"/><svg x="793" y="611" width="40" height="40" viewBox="0 0 100 100" color="white"><path d="M26 24v52m48-52v52M26 47q24 22 48 0" fill="none" stroke="currentColor" stroke-width="12" stroke-linecap="round"/></svg><rect x="964" y="197" width="276" height="300" rx="22" fill="#FAF0E5"/><svg x="1012" y="246" width="180" height="180" viewBox="0 0 100 100" color="#B76532"><g fill="none" stroke="currentColor" stroke-width="7" stroke-linecap="round"><path d="M22 28h32"/><path d="M22 47h47"/><path d="M22 66h29q20 0 28-14"/></g></svg><text x="964" y="541" font-size="13" fill="#6B726E">04 / FLOW</text><text x="964" y="580" font-size="25" font-weight="600">顺畅表达</text><svg x="964" y="620" width="24" height="24" viewBox="0 0 100 100" color="#242B29"><g fill="none" stroke="currentColor" stroke-width="7" stroke-linecap="round"><path d="M22 28h32"/><path d="M22 47h47"/><path d="M22 66h29q20 0 28-14"/></g></svg><svg x="1012" y="612" width="40" height="40" viewBox="0 0 100 100" color="#242B29"><g fill="none" stroke="currentColor" stroke-width="7" stroke-linecap="round"><path d="M22 28h32"/><path d="M22 47h47"/><path d="M22 66h29q20 0 28-14"/></g></svg><rect x="1083" y="601" width="60" height="60" rx="14" fill="#242B29"/><svg x="1093" y="611" width="40" height="40" viewBox="0 0 100 100" color="white"><g fill="none" stroke="currentColor" stroke-width="7" stroke-linecap="round"><path d="M22 28h32"/><path d="M22 47h47"/><path d="M22 66h29q20 0 28-14"/></g></svg><rect x="1264" y="197" width="276" height="300" rx="22" fill="#F9EBEF"/><svg x="1312" y="246" width="180" height="180" viewBox="0 0 100 100" color="#AF4E61"><g fill="currentColor"><path d="M43 24C27 24 17 36 17 51v18h27V44H29c1-7 6-11 14-12Z"/><path d="M57 76c16 0 26-12 26-27V31H56v25h15c-1 7-6 11-14 12Z"/></g></svg><text x="1264" y="541" font-size="13" fill="#6B726E">05 / QUOTE</text><text x="1264" y="580" font-size="25" font-weight="600">对话有温度</text><svg x="1264" y="620" width="24" height="24" viewBox="0 0 100 100" color="#242B29"><g fill="currentColor"><path d="M43 24C27 24 17 36 17 51v18h27V44H29c1-7 6-11 14-12Z"/><path d="M57 76c16 0 26-12 26-27V31H56v25h15c-1 7-6 11-14 12Z"/></g></svg><svg x="1312" y="612" width="40" height="40" viewBox="0 0 100 100" color="#242B29"><g fill="currentColor"><path d="M43 24C27 24 17 36 17 51v18h27V44H29c1-7 6-11 14-12Z"/><path d="M57 76c16 0 26-12 26-27V31H56v25h15c-1 7-6 11-14 12Z"/></g></svg><rect x="1383" y="601" width="60" height="60" rx="14" fill="#242B29"/><svg x="1393" y="611" width="40" height="40" viewBox="0 0 100 100" color="white"><g fill="currentColor"><path d="M43 24C27 24 17 36 17 51v18h27V44H29c1-7 6-11 14-12Z"/><path d="M57 76c16 0 26-12 26-27V31H56v25h15c-1 7-6 11-14 12Z"/></g></svg><path d="M64 724H1536" stroke="#DDDFDA"/><text x="64" y="776" font-size="16" fill="#6B726E">macOS 文字润色助手 · 彩色主标 / 单色缩略 / 深色适配</text><text x="1536" y="776" text-anchor="end" font-size="15" fill="#6B726E">推荐 01：友好直观    /    03：品牌辨识</text></g></svg>